<?xml version="1.0" encoding="UTF-8"?>
<svg width="35px" height="30px" viewBox="0 0 35 30" version="1.1" xmlns="http://www.w3.org/2000/svg" xmlns:xlink="http://www.w3.org/1999/xlink">
    <!-- Generator: Sketch 64 (93537) - https://sketch.com -->
    <title>Group 4</title>
    <desc>Created with Sketch.</desc>
    <g id="Desktop" stroke="none" stroke-width="1" fill="none" fill-rule="evenodd">
        <g id="Homepage" transform="translate(-1063.000000, -1344.000000)">
            <g id="Group-4" transform="translate(1063.000000, 1344.000000)">
                <path d="M5.18518519,25.0519782 C2.32148648,25.0519782 0,22.7673814 0,19.9491884 L0,5.10278983 C0,2.28459682 2.32148648,0 5.18518519,0 L29.8148148,0 C32.6785135,0 35,2.28459682 35,5.10278983 L35,19.9491884 C35,22.7673814 32.6785135,25.0519782 29.8148148,25.0519782 L24.4072203,25.0519782 C23.719622,25.0519782 23.060186,25.3207851 22.5739805,25.7992645 L18.8749299,29.4395353 C18.1155771,30.1868216 16.8844229,30.1868216 16.1250701,29.4395353 L12.4260195,25.7992645 C11.939814,25.3207851 11.280378,25.0519782 10.5927797,25.0519782 L5.18518519,25.0519782 Z" id="Path" fill="#616B75"></path>
                <g id="Group-2" transform="translate(11.000000, 7.000000)" fill="#FFFFFF">
                    <circle id="Oval" cx="6" cy="3" r="3"></circle>
                    <path d="M4,7 L8,7 C10.209139,7 12,8.790861 12,11 L12,11 L12,11 L0,11 C-2.705415e-16,8.790861 1.790861,7 4,7 Z" id="Rectangle"></path>
                </g>
            </g>
        </g>
    </g>
</svg>